<?xml version="1.0" encoding="iso-8859-1"?>
<!DOCTYPE svg PUBLIC "-//W3C//DTD SVG 1.1//EN" "http://www.w3.org/Graphics/SVG/1.1/DTD/svg11.dtd">
<svg 
 version="1.1" xmlns="http://www.w3.org/2000/svg" xmlns:xlink="http://www.w3.org/1999/xlink" x="0px" y="0px" width="512px"
	 height="512px" viewBox="0 0 512 512" style="enable-background:new 0 0 512 512;" xml:space="preserve"
><g id="afcae5a789ccd549f9c6e2a2f818a3ac"><g></g><g fill="#8d8d8d"><path style="display: inline;" d="M411.803,176.939c0,0-7.186-9.71-12.671-21.708c-3.718-8.117-5.477-13.948-5.477-13.948
		c-1.576-5.223-5.069-8.487-7.764-7.256c-2.69,1.239-9.232,1.189-14.53-0.1c0,0-52.613-12.795-88.784,3.755
		c-50.048,22.897-77.702,69.688-61.774,104.5c15.935,34.811,67.58,64.378,127.675,8.292c26.19-24.448,48.809-51.52,48.809-51.52
		c3.501-4.192,9.519-9.065,13.386-10.829C414.539,186.358,415.047,181.327,411.803,176.939z M269.166,175.708
		c-20.727,12.23-31.389,24.751-34.116,20.123c-2.729-4.628,11.864-18.285,32.594-30.507c20.727-12.234,39.747-18.393,42.476-13.765
		C312.847,156.185,289.9,163.487,269.166,175.708z M403.831,136.465l24.336-7.564c5.21-1.614,10.06-7.369,10.767-12.775
		c0,0,1.335-10.101,11.436-14.726c11.07-5.057,23.737-1.094,28.295,8.875c2.154,4.716,2.125,4.915,2.125,4.915
		c-1.027,5.356,1.809,11.419,6.291,13.482c0,0,0,0,1.896,4.146c3.419,7.469-0.536,16.601-8.841,20.402
		c-6.537,2.99-9.307,1.68-9.307,1.68c-4.937-2.316-13.028-2.362-17.989-0.096l-31.78,14.542c-0.315-0.507-0.64-1.015-0.998-1.505
		c-0.066-0.092-6.687-9.116-11.651-19.974C406.015,142.64,404.514,138.469,403.831,136.465z M488.715,384.246
		c-6.725,10.088-22.152,18.343-34.278,18.343H57.564c-12.126,0-27.555-8.255-34.279-18.343L3.645,354.787
		c-6.725-10.089-2.304-18.344,9.822-18.344h485.066c12.126,0,16.547,8.255,9.822,18.344L488.715,384.246z M21.792,228.987
		c0-76.001,70.753-148.043,164.345-148.043c46.384,0,92.137,14.409,131.359,36.915c-15.245,0.99-28.619,4.03-39.806,9.149
		c-26.364,12.064-47.973,30.702-60.847,52.484c-13.682,23.142-16.064,47.141-6.712,67.572c9.81,21.445,34.407,46.479,71.443,46.488
		l0,0c25.184,0,50.385-11.61,74.911-34.499c26.424-24.66,48.867-51.445,49.811-52.572c0.878-1.056,1.972-2.137,3.106-3.16
		c15.183,24.444,23.375,49.952,21.949,73.922c-1.193,20.09-6.487,34.849-15.923,45.752H56.108
		C34.072,304.739,21.792,275.58,21.792,228.987z"></path></g></g></svg>