<?xml version="1.0" encoding="UTF-8" standalone="no"?>
<svg width="60px" height="60px" viewBox="0 0 60 60" version="1.1" xmlns="http://www.w3.org/2000/svg" xmlns:xlink="http://www.w3.org/1999/xlink" xmlns:sketch="http://www.bohemiancoding.com/sketch/ns">
    <!-- Generator: Sketch 3.2.2 (9983) - http://www.bohemiancoding.com/sketch -->
    <title>Traveling</title>
    <desc>Created with Sketch.</desc>
    <defs></defs>
    <g id="stroked" stroke="none" stroke-width="1" fill="none" fill-rule="evenodd" sketch:type="MSPage">
        <g id="Activities" sketch:type="MSLayerGroup" transform="translate(-614.000000, -1678.000000)" stroke="#535353" stroke-width="2" stroke-linecap="round" stroke-linejoin="round">
            <g id="Traveling" transform="translate(619.000000, 1681.000000)" sketch:type="MSShapeGroup">
                <path d="M20,8 L46,8 C46,8 52.4836121,12.3333333 52.4836121,14.5 C52.4836121,16.6666667 46,21 46,21 L20,21 L20,8 Z" id="Rectangle-1222"></path>
                <path d="M0.25819397,23 L34.6037448,23 C34.6037448,23 41,27.3333333 41,29.5 C41,31.6666667 34.6037448,36 34.6037448,36 L0.25819397,36 L0.25819397,23 Z" id="Rectangle-1222" transform="translate(20.629097, 29.500000) rotate(-180.000000) translate(-20.629097, -29.500000) "></path>
                <rect id="Rectangle-1224" x="24" y="37" width="7" height="17"></rect>
                <rect id="Rectangle-1224" x="24" y="0" width="7" height="7"></rect>
                <path d="M39,49 C35.6862915,49 33,51.6862915 33,55" id="Oval-991"></path>
                <path d="M22,49 C18.6862915,49 16,51.6862915 16,55" id="Oval-991" transform="translate(19.000000, 55.000000) scale(-1, 1) translate(-19.000000, -55.000000) "></path>
            </g>
        </g>
    </g>
</svg>